<?xml version="1.0" standalone="no"?>
<!DOCTYPE svg PUBLIC "-//W3C//DTD SVG 20010904//EN"
 "http://www.w3.org/TR/2001/REC-SVG-20010904/DTD/svg10.dtd">
<svg version="1.0" xmlns="http://www.w3.org/2000/svg"
 width="1280.000000pt" height="1280.000000pt" viewBox="0 0 1280.000000 1280.000000"
 preserveAspectRatio="xMidYMid meet">
<metadata>
Created by potrace 1.15, written by Peter Selinger 2001-2017
</metadata>
<g transform="translate(0.000000,1280.000000) scale(0.100000,-0.100000)"
fill="#ffffff" stroke="none">
<path d="M6095 12794 c-27 -2 -115 -8 -195 -14 -1158 -85 -2296 -503 -3249
-1194 -1410 -1020 -2339 -2557 -2585 -4276 -49 -341 -60 -508 -60 -910 0 -402
11 -569 60 -910 176 -1227 699 -2366 1518 -3305 132 -151 433 -452 594 -593
968 -850 2160 -1386 3427 -1541 308 -38 447 -46 795 -46 348 0 487 8 795 46
1993 244 3764 1427 4767 3184 456 799 722 1651 815 2610 24 253 24 857 0 1110
-81 836 -282 1553 -638 2276 -496 1007 -1245 1859 -2194 2499 -271 183 -726
428 -1045 563 -627 266 -1261 422 -1985 488 -112 10 -729 20 -820 13z m845
-569 c748 -74 1424 -266 2069 -589 1755 -879 2947 -2559 3195 -4506 57 -444
57 -1016 0 -1460 -190 -1489 -937 -2843 -2091 -3788 -864 -709 -1899 -1153
-2993 -1286 -276 -34 -395 -41 -720 -41 -325 0 -444 7 -720 41 -2051 249
-3828 1582 -4652 3489 -251 580 -400 1177 -460 1845 -28 312 -15 862 28 1200
247 1945 1440 3627 3195 4506 714 357 1479 558 2309 608 141 8 692 -4 840 -19z"/>
<path d="M2604 9491 c-94 -23 -195 -108 -237 -199 l-22 -47 0 -2845 0 -2845
22 -47 c30 -66 102 -139 170 -174 l58 -29 2110 0 2110 0 57 27 c73 34 142 103
176 176 l27 57 0 2835 0 2835 -32 66 c-38 77 -92 130 -172 168 l-56 26 -2090
2 c-1149 0 -2104 -2 -2121 -6z m511 -654 c45 -25 85 -92 85 -142 0 -50 -40
-117 -85 -143 -31 -18 -51 -22 -93 -19 -90 6 -152 72 -152 159 0 132 131 209
245 145z m3435 -142 l0 -165 -1510 0 -1510 0 0 165 0 165 1510 0 1510 0 0
-165z m-3438 -511 c65 -34 102 -127 79 -197 -18 -53 -80 -104 -135 -112 -37
-6 -55 -3 -93 16 -63 31 -93 77 -93 141 0 136 123 213 242 152z m3438 -144 l0
-170 -1507 2 -1508 3 -3 168 -2 167 1510 0 1510 0 0 -170z m-3440 -513 c50
-26 90 -90 90 -141 -1 -46 -33 -110 -71 -136 -49 -36 -133 -39 -179 -8 -53 36
-80 83 -80 140 0 131 125 206 240 145z m3440 -142 l0 -165 -1510 0 -1510 0 0
165 0 165 1510 0 1510 0 0 -165z m0 -660 l0 -165 -1510 0 -1510 0 0 163 c0 90
2 166 4 168 2 2 682 3 1510 1 l1506 -2 0 -165z m-3432 145 c36 -22 68 -69 78
-113 10 -47 -5 -96 -43 -138 -58 -64 -136 -75 -211 -29 -99 61 -96 219 7 278
48 28 124 29 169 2z m-36 -640 c46 -13 105 -77 114 -125 13 -71 -32 -159 -96
-185 -17 -7 -53 -11 -83 -8 -94 8 -147 67 -147 166 0 63 30 109 90 140 49 25
68 27 122 12z m3468 -155 l0 -165 -1510 0 -1510 0 0 165 0 165 1510 0 1510 0
0 -165z m-3417 -528 c130 -99 47 -310 -116 -294 -159 15 -203 213 -67 305 48
33 132 28 183 -11z m3417 -132 l0 -165 -1510 0 -1510 0 0 165 0 165 1510 0
1510 0 0 -165z m-3477 -496 c117 -32 164 -175 86 -264 -105 -119 -289 -53
-289 104 0 80 43 138 119 161 36 11 41 11 84 -1z m3475 -156 l-3 -168 -1505 0
-1505 0 -3 168 -2 167 1510 0 1510 0 -2 -167z m-3439 -513 c105 -53 118 -206
24 -277 -51 -39 -135 -44 -183 -11 -53 36 -80 83 -80 140 0 129 125 207 239
148z m3441 -145 l0 -165 -1510 0 -1510 0 0 165 0 165 1510 0 1510 0 0 -165z"/>
<path d="M9908 7522 c-126 -126 -128 -129 -128 -173 0 -24 7 -56 16 -69 9 -14
145 -154 303 -312 l286 -288 -1195 0 c-784 0 -1208 -4 -1232 -10 -20 -6 -48
-24 -62 -41 -26 -30 -26 -32 -26 -214 l0 -183 29 -30 c17 -16 44 -32 62 -36
17 -3 572 -6 1233 -6 l1201 0 -308 -308 -307 -308 0 -48 0 -49 122 -123 c132
-134 164 -153 221 -135 38 13 1135 1107 1161 1158 25 51 21 112 -13 164 -16
24 -276 290 -578 592 l-548 547 -55 0 -54 0 -128 -128z"/>
</g>
</svg>
